<svg width="21" height="32" viewBox="0 0 21 32" fill="none" xmlns="http://www.w3.org/2000/svg">
<path d="M12.843 29.0701L13.8618 16.6122C13.8718 16.4867 13.9313 16.37 14.0274 16.2885C14.1234 16.2067 14.2478 16.1664 14.3735 16.1766C14.499 16.1868 14.6155 16.2463 14.6972 16.3424C14.7787 16.4387 14.8188 16.5631 14.8083 16.6888L13.7895 29.1467C13.7699 29.3932 13.5642 29.5836 13.3169 29.5838C13.3039 29.5836 13.2911 29.5825 13.2781 29.581C13.017 29.5601 12.8223 29.3314 12.843 29.0701L12.843 29.0701ZM20.5 13.2238V14.2127C20.5003 14.4751 20.2877 14.6879 20.0253 14.6881H19.6907L16.8525 30.6109C16.7942 30.9847 16.6031 31.3247 16.314 31.5687C16.0248 31.8127 15.6574 31.944 15.2791 31.9386H5.72097C5.33905 31.9429 4.96861 31.8083 4.67863 31.5597C4.38868 31.3112 4.19887 30.9658 4.14471 30.5877L1.30932 14.6885H0.974655C0.712293 14.6882 0.5 14.4754 0.5 14.2131V13.2242C0.501022 12.7968 0.671163 12.3872 0.973635 12.085C1.27585 11.7828 1.68564 11.6129 2.11302 11.6124H2.44972C2.54859 11.3286 2.73329 11.0826 2.97803 10.9086C3.22302 10.7344 3.51579 10.6403 3.81618 10.6398H12.1677L12.8636 4.53879C12.8787 4.41132 12.9443 4.29508 13.046 4.21665L17.6189 0.707843C17.8271 0.549708 18.1239 0.589562 18.2828 0.797002C18.4419 1.0047 18.4034 1.30154 18.1964 1.46146L13.7835 4.84738L13.1239 10.6398H17.1837C17.4842 10.6403 17.7772 10.7341 18.0219 10.9083C18.2669 11.0825 18.4513 11.3285 18.5502 11.6124H18.8869C19.3143 11.6129 19.7241 11.7828 20.0263 12.085C20.3288 12.3872 20.4989 12.7967 20.4999 13.2241L20.5 13.2238ZM1.44983 13.7373H19.5504V13.2238C19.5491 12.858 19.2525 12.5619 18.8867 12.5614H18.1546C17.8925 12.5609 17.6804 12.3481 17.6807 12.086C17.6802 11.8118 17.4577 11.5898 17.1836 11.5904H3.81593C3.54181 11.5898 3.3193 11.8118 3.31879 12.086C3.31879 12.3483 3.1065 12.5609 2.84439 12.5614H2.1127C1.74713 12.5619 1.45053 12.8582 1.44975 13.2238L1.44983 13.7373ZM18.7264 14.6879L2.27386 14.6881L5.08348 30.4441H5.08322C5.12589 30.7619 5.40052 30.9972 5.72112 30.9903H15.2792C15.5919 30.9995 15.8635 30.776 15.9143 30.4674L18.7264 14.6879Z" fill="black"/>
</svg>
