<svg width="31" height="44" viewBox="0 0 31 44" fill="none" xmlns="http://www.w3.org/2000/svg">
<path d="M30.4639 13.3462C30.5645 13.1011 30.4475 12.8213 30.2028 12.7207C29.9595 12.6214 29.6777 12.7374 29.5777 12.9821L27.8668 17.1514L26.9944 16.0499C27.322 15.4295 27.5035 14.7389 27.5035 14.0238C27.5035 12.8364 27.0268 11.7165 26.1891 10.8895L28.8858 5.6712C29.1045 5.24732 29.1422 4.76527 28.9931 4.31436C28.8434 3.86374 28.5261 3.5007 28.0979 3.29178C27.8595 3.17612 27.6038 3.11728 27.3377 3.11728C26.6437 3.11728 26.0169 3.52578 25.7428 4.15389L23.2938 9.62216C22.9194 9.60678 22.5413 9.64121 22.1716 9.72043L25.3678 3.54341C25.5864 3.11953 25.6242 2.63748 25.4744 2.18623C25.325 1.73594 25.0078 1.3729 24.5802 1.16434C24.3419 1.04834 24.0865 0.989502 23.8197 0.989502C23.1257 0.989502 22.4989 1.398 22.2252 2.02577L18.4132 10.5331C17.5735 10.4234 16.7495 10.5468 16.0137 10.8801C15.1787 9.87924 13.9448 9.28884 12.629 9.28884C11.4403 9.28884 10.3201 9.76486 9.49704 10.5999C8.97455 10.388 8.42398 10.2746 7.85197 10.2746C5.42267 10.2746 3.44573 12.2517 3.44573 14.6812C3.44573 15.2495 3.56373 15.8144 3.77701 16.3386L3.13317 17.1516L1.4223 12.982C1.32201 12.7373 1.04054 12.6209 0.797175 12.7206C0.552473 12.8212 0.43547 13.101 0.536093 13.346L2.52775 18.1996L3.96683 39.9621C3.96683 39.9627 3.9665 39.9631 3.9665 39.9638C3.9665 39.9648 3.96717 39.9658 3.96717 39.9671L4.2015 43.5102C4.21822 43.7619 4.42748 43.9578 4.67987 43.9578H26.3209C26.5732 43.9578 26.7822 43.7619 26.7992 43.5102L27.0336 39.9671C27.0336 39.9661 27.0342 39.9651 27.0342 39.9638C27.0342 39.9631 27.0339 39.9627 27.0339 39.9621L28.473 18.1996L30.4639 13.3462ZM26.1038 39.4843H4.89583L3.80642 23.0096H27.1932L26.1038 39.4843ZM4.6913 16.7282C4.69231 16.7272 4.69297 16.7259 4.69398 16.7245L7.13466 13.6427H11.4653H11.4707H14.2991C14.2998 13.6427 14.3005 13.643 14.3011 13.643C14.3021 13.643 14.3035 13.6427 14.3045 13.6427H17.7553C17.7563 13.6427 17.7577 13.6434 17.7587 13.6434C17.7603 13.6434 17.762 13.6427 17.7637 13.6427H22.2197H22.2268H23.8648L23.9564 13.7584C23.9567 13.7587 23.9567 13.759 23.9571 13.759L27.0075 17.6104L3.99213 17.6107L4.6913 16.7282ZM3.74327 22.0507L3.51294 18.5691H27.4868L27.2565 22.0507H3.74327ZM26.5447 14.0234C26.5447 14.4329 26.4648 14.8311 26.3257 15.2058L24.893 13.3966L25.7214 11.7937C26.2475 12.4131 26.5447 13.197 26.5447 14.0234H26.5447ZM26.6196 4.54053C26.7894 4.14941 27.2948 3.96689 27.6783 4.15242C27.8715 4.24702 28.0152 4.41115 28.0831 4.61507C28.1509 4.81965 28.1332 5.03828 28.0343 5.23049L24.1733 12.7019C24.1472 12.6975 24.1234 12.6842 24.0964 12.6842H22.9725L26.6196 4.54053ZM21.9221 12.6841H20.6437L21.5367 10.9526C21.9492 10.746 22.4021 10.6266 22.8584 10.5935L21.9221 12.6841ZM23.1015 2.4122C23.2719 2.02142 23.7787 1.83823 24.1601 2.02477C24.3534 2.11904 24.4971 2.28317 24.565 2.48675C24.6328 2.69133 24.6151 2.90996 24.5162 3.10251L20.7554 10.371C20.7481 10.3847 20.7417 10.3987 20.7364 10.4135L19.565 12.6843H18.4993L23.1015 2.4122ZM17.9985 11.457L17.4486 12.6838H15.1911C15.4512 12.3739 15.7588 12.1051 16.1178 11.9006C16.6821 11.5763 17.3259 11.4229 17.9985 11.457L17.9985 11.457ZM15.1815 11.3787C14.7115 11.7314 14.3243 12.1747 14.0288 12.6838H11.775C11.4501 12.042 10.9717 11.4927 10.3851 11.0799C11.0042 10.5474 11.7945 10.2462 12.6292 10.2462C13.6083 10.2462 14.531 10.6637 15.1815 11.3787V11.3787ZM4.40462 14.6798C4.40462 12.7784 5.95135 11.2316 7.85247 11.2316C8.3957 11.2316 8.91715 11.3553 9.40161 11.6003C9.90571 11.8537 10.3279 12.2315 10.6495 12.6841H6.90315C6.75674 12.6841 6.61867 12.751 6.52741 12.8656L4.49057 15.4373C4.43474 15.189 4.40466 14.9349 4.40466 14.6798L4.40462 14.6798ZM5.12868 42.9985L4.95953 40.4422H26.0408L25.8717 42.9985H5.12868Z" fill="black"/>
<path d="M8.20762 19.8193H5.64661C5.38185 19.8193 5.16724 20.0339 5.16724 20.2987C5.16724 20.5635 5.38151 20.7781 5.64661 20.7781H8.20762C8.47238 20.7781 8.68699 20.5635 8.68699 20.2987C8.68666 20.0339 8.47238 19.8193 8.20762 19.8193Z" fill="black"/>
<path d="M12.4942 19.8193H9.93323C9.66847 19.8193 9.45386 20.0339 9.45386 20.2987C9.45386 20.5635 9.66814 20.7781 9.93323 20.7781H12.4942C12.759 20.7781 12.9736 20.5635 12.9736 20.2987C12.9736 20.0339 12.7593 19.8193 12.4942 19.8193Z" fill="black"/>
<path d="M16.7801 19.8193H14.2191C13.9544 19.8193 13.7397 20.0339 13.7397 20.2987C13.7397 20.5635 13.954 20.7781 14.2191 20.7781H16.7801C17.0449 20.7781 17.2595 20.5635 17.2595 20.2987C17.2595 20.0339 17.0452 19.8193 16.7801 19.8193Z" fill="black"/>
<path d="M21.0665 19.8193H18.5055C18.2407 19.8193 18.0261 20.0339 18.0261 20.2987C18.0261 20.5635 18.2404 20.7781 18.5055 20.7781H21.0665C21.3313 20.7781 21.5459 20.5635 21.5459 20.2987C21.5455 20.0339 21.3313 19.8193 21.0665 19.8193Z" fill="black"/>
<path d="M25.3524 19.8193H22.7914C22.5266 19.8193 22.312 20.0339 22.312 20.2987C22.312 20.5635 22.5263 20.7781 22.7914 20.7781H25.3524C25.6172 20.7781 25.8318 20.5635 25.8318 20.2987C25.8318 20.0339 25.6175 19.8193 25.3524 19.8193Z" fill="black"/>
<path d="M9.72992 41.2814H7.92542C7.66066 41.2814 7.44604 41.496 7.44604 41.7607C7.44604 42.0255 7.66032 42.2401 7.92542 42.2401H9.72992C9.99468 42.2401 10.2093 42.0255 10.2093 41.7607C10.209 41.496 9.99468 41.2814 9.72992 41.2814Z" fill="black"/>
<path d="M13.0659 41.2814H11.2614C10.9966 41.2814 10.782 41.496 10.782 41.7607C10.782 42.0255 10.9963 42.2401 11.2614 42.2401H13.0659C13.3306 42.2401 13.5452 42.0255 13.5452 41.7607C13.5452 41.496 13.3306 41.2814 13.0659 41.2814Z" fill="black"/>
<path d="M16.4018 41.2814H14.5973C14.3325 41.2814 14.1179 41.496 14.1179 41.7607C14.1179 42.0255 14.3322 42.2401 14.5973 42.2401H16.4018C16.6666 42.2401 16.8812 42.0255 16.8812 41.7607C16.8812 41.496 16.6669 41.2814 16.4018 41.2814Z" fill="black"/>
<path d="M19.7375 41.2814H17.933C17.6682 41.2814 17.4536 41.496 17.4536 41.7607C17.4536 42.0255 17.6679 42.2401 17.933 42.2401H19.7375C20.0022 42.2401 20.2169 42.0255 20.2169 41.7607C20.2169 41.496 20.0026 41.2814 19.7375 41.2814Z" fill="black"/>
<path d="M23.0744 41.2814H21.2699C21.0051 41.2814 20.7905 41.496 20.7905 41.7607C20.7905 42.0255 21.0048 42.2401 21.2699 42.2401H23.0744C23.3392 42.2401 23.5538 42.0255 23.5538 41.7607C23.5534 41.496 23.3392 41.2814 23.0744 41.2814Z" fill="black"/>
<path d="M21.9421 30.7664H20.3308C20.2339 29.7873 19.8451 28.893 19.2527 28.1717L20.3953 27.0321C20.5829 26.8453 20.5829 26.5421 20.3964 26.3545C20.2095 26.167 19.9063 26.1667 19.7187 26.3535L18.5748 27.4941C17.8531 26.9018 16.9585 26.5133 15.9794 26.417V24.8037C15.9794 24.539 15.7651 24.3243 15.5 24.3243C15.2353 24.3243 15.0207 24.539 15.0207 24.8037V26.417C14.0416 26.5136 13.1467 26.9018 12.4253 27.4941L11.2813 26.3535C11.0941 26.1667 10.7909 26.1667 10.6037 26.3545C10.4169 26.5421 10.4169 26.8453 10.6047 27.0321L11.7474 28.1717C11.155 28.8931 10.7662 29.7877 10.6693 30.7664H9.05799C8.79323 30.7664 8.57861 30.981 8.57861 31.2458C8.57861 31.5106 8.79289 31.7252 9.05799 31.7252H10.6693C10.7655 32.706 11.1543 33.6019 11.7474 34.3243L10.6047 35.4638C10.4172 35.6507 10.4172 35.9539 10.6037 36.1414C10.6973 36.235 10.82 36.2822 10.943 36.2822C11.0657 36.2822 11.1877 36.2357 11.2813 36.1421L12.4252 35.0012C13.147 35.5935 14.0416 35.982 15.0207 36.0783V37.6916C15.0207 37.9563 15.2349 38.171 15.5 38.171C15.7648 38.171 15.9794 37.9563 15.9794 37.6916V36.0783C16.9585 35.982 17.8531 35.5935 18.5748 35.0015L19.7187 36.1424C19.8123 36.2354 19.9344 36.2822 20.057 36.2822C20.1797 36.2822 20.3027 36.235 20.3963 36.1414C20.5832 35.9539 20.5832 35.6507 20.3953 35.4638L19.2527 34.3243C19.8461 33.6019 20.2349 32.706 20.3308 31.7252H21.9421C22.2068 31.7252 22.4214 31.5106 22.4214 31.2458C22.4214 30.9811 22.2068 30.7664 21.9421 30.7664L21.9421 30.7664ZM15.5064 35.1439C15.5044 35.1436 15.5023 35.1426 15.5 35.1426C15.4977 35.1426 15.4957 35.1439 15.4937 35.1439C13.3482 35.1402 11.6035 33.3939 11.6035 31.2478C11.6035 29.1013 13.3479 27.355 15.4937 27.3517C15.496 27.3517 15.4977 27.353 15.5 27.353C15.5023 27.353 15.5044 27.3517 15.5064 27.3517C17.6518 27.3554 19.3965 29.1017 19.3965 31.2478C19.3965 33.3939 17.6521 35.1402 15.5064 35.1439Z" fill="black"/>
<path d="M15.4997 28.7195C14.1061 28.7195 12.9722 29.8534 12.9722 31.247C12.9722 32.641 14.1061 33.7749 15.4997 33.7749C16.8934 33.7749 18.0273 32.641 18.0273 31.2474C18.0273 29.8537 16.8934 28.7195 15.4997 28.7195ZM15.4997 32.8162C14.6343 32.8162 13.9306 32.1122 13.9306 31.247C13.9306 30.3816 14.6346 29.6779 15.4997 29.6779C16.3652 29.6779 17.0689 30.3819 17.0689 31.247C17.0689 32.1125 16.3652 32.8162 15.4997 32.8162Z" fill="black"/>
</svg>
