<svg width="47" height="34" viewBox="0 0 47 34" fill="none" xmlns="http://www.w3.org/2000/svg">
<path d="M45.9425 16.822C47.0252 18.7886 45.9425 19.6942 44.197 20.3794L13.0868 32.7751C11.6503 33.195 10.7226 33.1726 9.8832 31.7805L0.713423 14.7454C-0.0599275 13.1101 1.42028 11.7625 2.72451 11.3206C3.01216 10.7019 3.63048 10.3484 4.24916 10.1052C8.293 8.80175 12.2699 7.36521 16.3135 6.03972C16.9987 5.37695 17.8382 4.91256 18.8103 4.86887C19.6053 4.84683 20.4011 4.89092 21.13 5.02319C21.5275 4.31633 22.0583 3.56471 22.7428 3.0121C24.1793 1.81886 25.9688 1.92937 27.6923 2.32693C28.0898 1.79679 28.5541 1.31037 29.1063 0.9349C31.5811 -0.74404 37.6352 0.912855 37.7678 4.40374C37.7899 4.64695 37.7678 4.89015 37.7234 5.13264C40.2202 5.81781 42.1203 7.62943 41.3914 10.4355C42.8496 12.2926 44.3301 14.1266 45.9426 16.8221L45.9425 16.822ZM14.7221 23.4731C13.5733 23.2523 12.4906 23.0311 12.1369 21.6616C11.8937 20.6894 12.203 19.717 13.264 19.43C14.0815 19.2092 14.6344 19.6067 15.0535 19.9825C15.4735 20.4025 15.2968 20.3584 15.7387 20.4245C17.1752 20.6012 17.9041 21.0652 18.2355 21.5954C18.8101 22.5237 18.0588 23.9595 17.0647 23.9595C16.3795 23.9592 15.4291 23.6274 14.7222 23.4731H14.7221ZM15.1858 21.2857C14.965 21.2196 14.81 21.0649 14.6112 20.8658C14.3463 20.6009 13.9705 20.2251 13.484 20.3357C12.9539 20.49 12.9315 20.9764 13.0421 21.4404C13.1747 21.9268 13.5285 22.1917 13.9922 22.3464C13.7934 21.7718 14.0366 20.9988 14.7655 21.2637C15.1855 21.4404 15.2736 21.595 15.2957 21.5513C15.2967 21.5282 15.2523 21.4183 15.1858 21.2857L15.1858 21.2857ZM17.4394 22.0808C17.2851 21.8159 16.9092 21.5943 16.2023 21.44C16.2244 21.5943 16.2244 21.7277 16.1579 21.882C16.0253 22.2358 15.7159 22.4566 15.0091 22.3019C15.0752 22.4345 15.1634 22.5451 15.274 22.6557C15.8265 22.7663 16.5554 23.0315 17.0635 23.0315C17.5058 23.0529 17.6388 22.4121 17.4393 22.0808L17.4394 22.0808ZM19.561 24.9313C17.7932 27.1848 12.7111 25.7263 11.1865 23.8041C10.3914 22.7876 10.5678 20.2467 10.7445 18.9869C9.99319 18.6556 9.10924 18.125 8.57912 17.4623C7.76168 16.4241 8.02658 14.1921 8.13715 12.9103C8.24773 11.4739 9.37417 9.88306 10.5013 8.9771C8.49023 9.66227 6.5019 10.3475 4.57975 10.9882C3.85084 11.2531 3.29831 11.6069 3.60761 12.4246L12.0921 27.7367C12.4896 28.4656 13.3515 28.3775 14.0366 28.2231L43.6003 17.0645C44.4398 16.7107 44.3516 16.1806 43.9541 15.4516L41.0154 11.5184C40.6616 12.3803 39.3581 14.877 38.7174 15.6059C37.5903 17.0424 35.315 16.8874 33.7239 16.4454C33.4363 16.9535 32.7074 18.3015 32.3319 18.699C31.1831 20.1792 28.8407 20.0024 27.2278 19.5164C26.8964 20.1127 26.3659 21.0855 25.9464 21.6156C24.8192 23.0077 22.6322 22.8971 21.0631 22.4551C20.6876 23.141 20.0469 24.3336 19.5612 24.9305L19.561 24.9313ZM11.6505 19.4954C11.5399 20.6002 11.3628 22.5003 11.9154 23.2298C13.0642 24.6883 17.3505 26.0359 18.7653 24.4231C18.8315 23.8268 18.9196 23.2522 18.9641 22.7217C19.0523 22.081 19.1184 21.4847 19.1629 20.8878C19.1849 20.6446 18.9641 20.3577 18.5666 20.0704C17.219 19.0978 12.8438 18.0813 11.6506 19.4954L11.6505 19.4954ZM15.9812 14.1043C14.7442 12.9335 10.4351 11.9389 9.06523 13.176C8.93261 14.0378 8.77758 16.2032 9.30844 16.8876C9.70596 17.3957 10.4132 17.816 11.0098 18.0809C11.1203 17.7495 11.2974 17.4181 11.4962 17.0643C10.524 16.8211 9.77274 16.4456 9.50786 15.407C8.99976 13.5069 10.48 12.8442 12.0931 13.5731C12.9106 13.9489 13.5958 14.5014 13.9716 14.4791C14.6777 14.1263 15.2303 14.0819 15.9812 14.1043L15.9812 14.1043ZM17.1308 14.1708C17.2851 14.1928 17.4401 14.2152 17.5948 14.2369C17.8156 13.7729 18.1249 13.2648 18.4787 12.7785C18.5008 12.6017 18.5232 12.4471 18.5232 12.2704C18.4126 9.68509 14.7005 8.93414 12.6898 9.02225C11.2978 9.0667 9.86168 10.7677 9.33119 11.961C11.2975 11.2541 16.3796 12.0715 17.1309 14.1708L17.1308 14.1708ZM18.5445 14.4357C18.7432 14.5018 18.9644 14.5683 19.1632 14.6565C19.8039 14.5239 20.6434 14.5459 21.2841 14.5904C22.7644 14.7447 26.1674 15.5625 26.4768 17.3083C26.5429 17.7282 26.3662 18.7667 26.3225 19.2528C27.1844 17.7726 28.0679 16.0268 27.8251 14.8115C27.317 12.2706 23.9808 11.6295 21.8154 11.696C21.1085 11.7404 20.4678 12.0718 19.9369 12.5579C19.3399 13.088 18.8542 13.7949 18.5445 14.4356L18.5445 14.4357ZM20.7539 15.4967C21.3285 15.9166 21.7705 16.4468 22.0574 17.0875C23.5376 17.2642 24.2889 17.7282 24.6203 18.2583C25.1948 19.1867 24.4435 20.6225 23.4494 20.6225C23.0295 20.6225 22.5211 20.4899 22.0354 20.3793C21.9027 20.7768 21.704 21.1968 21.5052 21.6163C22.61 21.8812 24.3333 22.0363 25.1508 21.0862C25.217 20.5116 25.2834 19.9374 25.3496 19.4072C25.394 19.0535 25.5928 17.7059 25.5483 17.4627C25.3496 16.3139 22.1459 15.6287 21.1956 15.5181C21.0413 15.5185 20.9086 15.4968 20.754 15.4968L20.7539 15.4967ZM22.3671 18.0596C22.4333 18.5015 22.4116 18.9879 22.301 19.4736C22.7209 19.5842 23.1405 19.6944 23.4498 19.6944C23.7147 19.6944 24.0244 19.0757 23.8257 18.7443C23.6486 18.4791 23.2287 18.2138 22.3672 18.0595L22.3671 18.0596ZM12.0259 16.2256C12.1585 16.0048 12.3352 15.8057 12.5123 15.6069C12.6449 15.4526 12.8 15.3193 12.9322 15.187C12.3576 14.9662 11.2533 14.0162 10.833 14.1264C10.3249 14.259 10.2805 14.7451 10.4131 15.1646C10.6119 15.9383 11.3411 16.0709 12.026 16.2256L12.0259 16.2256ZM15.4286 15.0324C13.8158 15.0985 12.512 16.8439 11.9374 18.2143C13.9257 17.4409 17.439 18.1261 19.1188 19.3191C19.7815 19.7831 20.157 20.3573 20.0909 20.998C20.0465 21.5505 19.9803 22.0807 19.9366 22.5671C21.1298 20.5343 22.544 17.9931 20.1798 16.2256C18.8976 15.2752 16.9971 14.9882 15.4288 15.0324H15.4286ZM19.4056 11.7843C20.2006 11.0991 20.9747 10.7897 22.035 10.7677C21.0629 9.97266 19.1407 9.53068 17.8813 9.46423C18.6767 10.0388 19.2293 10.7901 19.4056 11.7843ZM23.2506 10.8121C23.56 10.8342 23.8693 10.8783 24.2007 10.9447C24.5321 10.304 24.797 9.53068 24.6427 8.8014C24.1563 6.32663 20.9527 5.70767 18.8537 5.79651C17.4173 5.84095 16.2909 7.27674 15.6938 8.44831C15.8706 8.49276 16.0476 8.55889 16.224 8.62503C17.9253 8.29293 22.6537 9.0005 23.2506 10.8121L23.2506 10.8121ZM25.1728 11.1876C25.5703 11.2982 25.9241 11.4525 26.2775 11.6296C26.6975 11.6075 27.1394 11.6296 27.581 11.674C28.7964 11.7846 30.0558 12.138 31.0278 12.6024C32.0884 13.1105 32.8394 13.8177 32.8618 14.5907C32.8838 15.0547 32.7512 15.8721 32.7075 16.3586C33.5693 14.8783 34.4529 13.1326 34.2101 11.9396C33.702 9.37674 30.3658 8.73602 28.2004 8.82413C26.9844 8.86751 25.5924 10.1048 25.1727 11.1876L25.1728 11.1876ZM27.6696 12.6237C28.1115 13.0656 28.4429 13.5958 28.6417 14.2145C29.9676 14.4133 30.6745 14.8552 31.0059 15.3633C31.5805 16.2917 30.8292 17.7495 29.835 17.7495C29.3269 17.7275 28.7744 17.5728 28.266 17.4402C28.1116 17.8601 27.9122 18.2797 27.6914 18.6772C28.8185 18.9865 30.6742 19.1853 31.5357 18.2132C31.69 17.0423 31.8233 15.849 31.9332 14.6778C31.9552 14.1253 31.0493 13.6396 30.6073 13.4408C29.7906 13.0436 28.7079 12.7343 27.6697 12.6237L27.6696 12.6237ZM28.7964 15.1869C28.7964 15.6289 28.7082 16.0929 28.5756 16.5573L28.6417 16.5793C29.0616 16.6899 29.5256 16.8001 29.8349 16.8001C30.0781 16.8001 30.4095 16.1815 30.2107 15.85C30.0337 15.5848 29.6141 15.3416 28.7963 15.1869L28.7964 15.1869ZM35.1599 12.0714C35.2043 12.5134 35.1378 12.9774 35.0272 13.4635C35.381 13.574 35.8447 13.7067 36.2205 13.7067C36.4637 13.7067 36.7951 13.088 36.5963 12.7566C36.4196 12.491 35.9997 12.2261 35.1598 12.0714L35.1599 12.0714ZM34.7399 14.3694C34.5856 14.767 34.3861 15.1869 34.1874 15.6065C35.2921 15.8941 37.0597 16.0705 37.9218 15.0984C38.2095 13.7725 38.3859 12.0711 38.3194 11.4965C38.2088 10.3257 34.762 9.57437 33.7898 9.48544C34.2979 9.92741 34.6958 10.4576 34.9386 11.0983C36.3307 11.275 37.0596 11.739 37.3913 12.2691C37.9438 13.1751 37.2146 14.6333 36.2204 14.6333C35.7344 14.6344 35.2039 14.4801 34.7398 14.3695L34.7399 14.3694ZM25.6148 9.06655C26.2999 8.42582 27.1174 7.96179 28.0674 7.89571C27.1614 7.23294 25.6372 6.81297 24.5544 6.68035C25.1507 7.32072 25.5703 8.18261 25.6147 9.06655H25.6148ZM29.3486 7.89534C29.7244 7.93979 30.0999 7.98352 30.4757 8.04965C30.8295 7.32075 30.9621 6.81264 30.8071 5.99487C30.2546 3.21081 25.261 2.10605 23.3388 3.71891C22.8308 4.13883 22.4105 4.71344 22.0794 5.26559C22.477 5.37617 22.8528 5.53049 23.2066 5.70756C24.5766 5.33244 28.5315 6.52571 29.3486 7.89532L29.3486 7.89534ZM31.4037 8.24912C31.7131 8.3373 32 8.44788 32.2656 8.55846C32.6414 8.47028 33.5691 8.51402 33.9669 8.55846C35.4472 8.71277 39.071 9.59668 39.2478 11.409C39.2922 11.873 39.1372 12.7566 39.0935 13.2429C40.4638 10.9009 41.8114 8.18326 38.7621 6.52562C37.6133 5.90694 36.0886 5.66373 34.586 5.70818C33.1492 5.77396 32.0444 7.09984 31.4037 8.24902L31.4037 8.24912ZM36.8172 4.93457C36.8392 4.75786 36.8392 4.60319 36.8392 4.44816C36.7287 1.75266 31.514 0.426709 29.6142 1.70815C29.2604 1.95135 28.929 2.26069 28.6641 2.61412C29.4591 2.90177 30.2108 3.34302 30.785 3.98449C31.8457 4.1388 32.906 4.38201 33.8344 4.89046C34.6738 4.66965 35.9777 4.77988 36.8172 4.93455L36.8172 4.93457ZM32.7073 5.39859C32.3098 5.24427 31.8898 5.13369 31.4919 5.0448C31.6462 5.39859 31.7351 5.79611 31.7568 6.17195C32.0445 5.88502 32.3542 5.61941 32.7072 5.3986L32.7073 5.39859ZM14.7655 8.22671C14.8981 7.96181 15.0532 7.67416 15.2295 7.38722C14.5668 7.60802 13.8591 7.82918 13.1523 8.07238C13.7052 8.09407 14.2354 8.13852 14.7656 8.2267L14.7655 8.22671ZM2.61378 12.3584C1.88488 12.7342 1.24341 13.4631 1.53105 14.325L10.7008 31.3164C11.2971 32.2886 11.828 32.1783 12.8218 31.869L43.8437 19.517C45.1913 18.9869 45.9429 18.5225 44.9925 17.0867C44.7938 17.4405 44.44 17.7275 43.9543 17.9262L14.3469 29.1058C13.2863 29.5033 11.8501 29.2601 11.2759 28.1775L2.79073 12.8435C2.70255 12.6892 2.65811 12.5342 2.61437 12.3571L2.61378 12.3584Z" fill="black"/>
</svg>
