<svg width="82" height="83" viewBox="0 0 82 83" fill="none" xmlns="http://www.w3.org/2000/svg">
<path d="M78.5426 16.7374C77.4709 11.5025 72.3424 8.11507 67.1047 9.18745L51.1955 12.4456C48.6686 12.9628 46.4907 14.4411 45.0607 16.6066C43.6313 18.7729 43.1292 21.3566 43.6457 23.8827L46.9038 39.792C47.421 42.3189 48.8993 44.4982 51.0648 45.9283C52.6745 46.9899 54.5155 47.5408 56.3924 47.5408C57.0403 47.5408 57.6932 47.4747 58.3419 47.3418L74.2524 44.0851C79.4866 43.012 82.8733 37.8821 81.8024 32.648L78.5426 16.7374ZM73.8378 42.0686L57.9273 45.3253C55.9392 45.7333 53.9049 45.3354 52.1976 44.2091C50.4917 43.0828 49.3267 41.3669 48.9187 39.3808L45.6605 23.4715C45.254 21.4834 45.6504 19.4484 46.7767 17.7418C47.903 16.0345 49.6189 14.8709 51.6065 14.4629L67.5157 11.2047C68.0308 11.0999 68.5422 11.0496 69.0478 11.0496C72.5962 11.0496 75.7846 13.5434 76.5229 17.1507L79.7811 33.0613C80.6272 37.182 77.96 41.2233 73.8378 42.0686Z" fill="#CFBDB1"/>
<path d="M73.8378 42.0686L57.9273 45.3253C55.9392 45.7333 53.9049 45.3354 52.1976 44.2091C50.4917 43.0828 49.3267 41.3669 48.9187 39.3808L45.6605 23.4715C45.254 21.4834 45.6504 19.4484 46.7767 17.7418C47.903 16.0345 49.6189 14.8709 51.6065 14.4629L67.5157 11.2047C68.0308 11.0999 68.5422 11.0496 69.0478 11.0496C72.5962 11.0496 75.7846 13.5434 76.5229 17.1507L79.7811 33.0613C80.6272 37.182 77.96 41.2233 73.8378 42.0686Z" fill="#CFBDB1"/>
<path d="M19.8278 39.9081L34.7752 33.5601C37.1484 32.5523 38.9923 30.6719 39.9641 28.2641C40.9352 25.8579 40.9158 23.2247 39.9074 20.8521L33.5593 5.90327C31.4713 0.985228 25.7716 -1.31823 20.8508 0.771191L5.90342 7.11927C3.5288 8.12702 1.68633 10.0075 0.714524 12.4152C-0.257316 14.8214 -0.237202 17.4546 0.771266 19.8272L7.11934 34.7761C8.6859 38.4623 12.2794 40.6782 16.0533 40.6782C17.3146 40.6782 18.5953 40.4303 19.8278 39.9081ZM9.01477 33.9708L2.6667 19.022C1.873 17.1552 1.85864 15.0814 2.62432 13.1853C3.39073 11.2884 4.84025 9.80795 6.70847 9.01488L21.6559 2.66681C22.6255 2.25523 23.6348 2.05914 24.6288 2.05914C27.6003 2.05914 30.4311 3.80456 31.6637 6.70706L38.0118 21.6559C38.8047 23.5227 38.8198 25.5965 38.0541 27.4926C37.2877 29.3895 35.8382 30.8699 33.97 31.663L19.0226 38.0111C15.151 39.6567 10.6603 37.8439 9.01477 33.9708Z" fill="#CFBDB1"/>
<path d="M9.01477 33.9708L2.6667 19.022C1.873 17.1552 1.85864 15.0814 2.62432 13.1853C3.39073 11.2884 4.84025 9.80795 6.70847 9.01488L21.6559 2.66681C22.6255 2.25523 23.6348 2.05914 24.6288 2.05914C27.6003 2.05914 30.4311 3.80456 31.6637 6.70706L38.0118 21.6559C38.8047 23.5227 38.8198 25.5965 38.0541 27.4926C37.2877 29.3895 35.8382 30.8699 33.97 31.663L19.0226 38.0111C15.151 39.6567 10.6603 37.8439 9.01477 33.9708Z" fill="#CFBDB1"/>
<path d="M24.7888 30.8133C30.5645 28.3596 33.2673 21.6653 30.8146 15.8904C28.3631 10.1154 21.6708 7.41534 15.8916 9.86333C10.116 12.317 7.41313 19.0113 9.8659 24.7863C11.704 29.1153 15.9238 31.7176 20.3557 31.7176C21.8353 31.7183 23.3408 31.4274 24.7888 30.8133ZM13.9127 27.084C14.0916 27.1013 14.2733 27.1286 14.4701 27.1623C15.2559 27.2945 16.2327 27.4597 17.6613 26.8542C19.0914 26.2465 19.6509 25.4277 20.1007 24.7712C20.4885 24.2037 20.7687 23.7943 21.6443 23.4223C22.5198 23.0495 23.0097 23.1342 23.6892 23.247C24.4735 23.3792 25.4518 23.5458 26.8826 22.9381C28.3127 22.3298 28.8729 21.5116 29.3232 20.8551C29.4367 20.6892 29.5445 20.5398 29.658 20.3976C29.6443 22.0626 29.1782 23.6845 28.3378 25.1001C28.2947 25.1116 28.2501 25.108 28.2078 25.126C27.3027 25.5124 26.6979 25.4471 25.9345 25.363C25.0431 25.2682 24.0324 25.159 22.634 25.7523C21.2427 26.3435 20.5933 27.1516 20.0194 27.8662C19.5166 28.4911 19.1201 28.9853 18.2058 29.3746C18.1957 29.3789 18.1892 29.3883 18.1799 29.3918C16.5896 29.0112 15.1113 28.2232 13.9126 27.084L13.9127 27.084ZM11.7615 23.9825C11.6078 23.6212 11.4878 23.2542 11.3823 22.8857C11.8412 22.8053 12.2198 22.857 12.6744 22.9353C13.4588 23.0689 14.4349 23.2362 15.8657 22.6271C17.295 22.0195 17.8538 21.2021 18.3043 20.5449C18.6922 19.9767 18.9737 19.5666 19.8486 19.1938C20.7249 18.8232 21.214 18.9058 21.8935 19.02C22.6779 19.1521 23.6576 19.3195 25.0877 18.7097C26.5178 18.102 27.078 17.2846 27.5283 16.6274C27.7876 16.2474 28.0146 15.9407 28.3881 15.6656C28.5799 15.996 28.7659 16.3329 28.9196 16.6935C29.0985 17.1158 29.2328 17.5439 29.3463 17.9756C28.4341 18.5222 27.988 19.1579 27.6238 19.6909C27.2345 20.259 26.9544 20.6699 26.0781 21.042C25.2025 21.414 24.7126 21.3293 24.0332 21.2158C23.2488 21.0829 22.2705 20.9184 20.8397 21.5246C19.4104 22.1323 18.8502 22.9511 18.4011 23.6069C18.0133 24.1751 17.7317 24.5852 16.8568 24.958C15.9813 25.3279 15.4935 25.2446 14.8161 25.1311C14.1797 25.0226 13.4148 24.9005 12.3891 25.1778C12.1557 24.7971 11.9409 24.4042 11.7613 23.9826L11.7615 23.9825ZM23.9823 28.9171C23.0874 29.2978 22.1651 29.5255 21.2449 29.6153C21.3778 29.4601 21.5035 29.3064 21.6242 29.1563C22.127 28.5314 22.5235 28.0372 23.4378 27.6486C24.3443 27.2636 24.9484 27.3283 25.7111 27.4116C25.913 27.4332 26.1227 27.4547 26.3404 27.4691C25.6487 28.0523 24.8585 28.5443 23.9823 28.9171H23.9823ZM27.155 14.0107C26.5014 14.4913 26.1343 15.0149 25.8276 15.4645C25.4397 16.0327 25.1582 16.4435 24.2819 16.8156C23.4063 17.1884 22.9164 17.1036 22.2369 16.9909C21.4526 16.858 20.4743 16.6921 19.0435 17.2997C17.6134 17.9074 17.0532 18.7262 16.6042 19.3827C16.2163 19.9509 15.9362 20.361 15.0606 20.7324C14.185 21.1044 13.6951 21.0197 13.0199 20.9055C12.4812 20.8128 11.8484 20.7115 11.0447 20.8502C11.0066 20.1427 11.0454 19.4402 11.166 18.7528C11.4455 18.7959 11.7407 18.8362 12.0783 18.8362C12.6342 18.8362 13.2842 18.7363 14.0708 18.4023C15.5009 17.7946 16.0611 16.9758 16.5101 16.3193C16.898 15.7512 17.1781 15.341 18.0537 14.9697C18.9293 14.5991 19.4199 14.6802 20.1001 14.7959C20.8845 14.928 21.862 15.0932 23.2935 14.4856C24.557 13.949 25.141 13.2487 25.569 12.6403C26.1458 13.0311 26.673 13.4944 27.155 14.0108L27.155 14.0107ZM16.6976 11.7612C17.8827 11.2576 19.1152 11.0184 20.327 11.0184C21.4971 11.0184 22.6398 11.2612 23.7137 11.6807C23.4379 12.0327 23.1182 12.3236 22.4876 12.5908C21.6113 12.9628 21.1214 12.8809 20.4427 12.7646C19.6561 12.6317 18.6785 12.4672 17.2485 13.0749C15.8184 13.6825 15.2604 14.4999 14.8099 15.1571C14.422 15.7253 14.1404 16.1354 13.2656 16.5068C12.6285 16.7776 12.1953 16.8041 11.7457 16.7546C12.6515 14.5846 14.3667 12.7495 16.6976 11.7612V11.7612Z" fill="black"/>
<path d="M43.6407 46.7723L27.4974 45.0046C24.9325 44.7223 22.4061 45.4635 20.3829 47.0876C18.3588 48.7116 17.0889 51.018 16.8087 53.5822L15.0402 69.7248C14.7594 72.289 15.4992 74.8146 17.1232 76.8393C18.7473 78.8634 21.0537 80.1333 23.6179 80.4141L39.7612 82.1818C40.1175 82.2205 40.473 82.2407 40.8257 82.2407C43.0172 82.2407 45.1333 81.4972 46.875 80.0988C48.8991 78.4748 50.169 76.1684 50.4492 73.6042L52.2169 57.4609C52.8002 52.1484 48.9525 47.354 43.6407 46.7723ZM50.1714 57.2361L48.4037 73.3802C48.1832 75.3964 47.1826 77.213 45.5887 78.493C43.9948 79.7729 42.0045 80.3612 39.9883 80.1357L23.8449 78.368C21.8287 78.1467 20.0122 77.1469 18.7322 75.5517C17.4522 73.9564 16.8682 71.9682 17.0895 69.952L18.8571 53.8079C19.0777 51.7917 20.0782 49.9751 21.6722 48.6951C23.0455 47.5933 24.7119 47.0065 26.4365 47.0065C26.7145 47.0065 26.9939 47.0223 27.2726 47.0532L43.4159 48.8208C45.4321 49.0421 47.2487 50.0419 48.5287 51.6371C49.8094 53.231 50.3934 55.2199 50.1714 57.2361Z" fill="#CFBDB1"/>
<path d="M50.1714 57.2361L48.4037 73.3802C48.1832 75.3964 47.1826 77.213 45.5887 78.493C43.9948 79.7729 42.0045 80.3612 39.9883 80.1357L23.8449 78.368C21.8287 78.1467 20.0122 77.1469 18.7322 75.5517C17.4522 73.9564 16.8682 71.9682 17.0895 69.952L18.8571 53.8079C19.0777 51.7917 20.0782 49.9751 21.6722 48.6951C23.0455 47.5933 24.7119 47.0065 26.4365 47.0065C26.7145 47.0065 26.9939 47.0223 27.2726 47.0532L43.4159 48.8208C45.4321 49.0421 47.2487 50.0419 48.5287 51.6371C49.8094 53.231 50.3934 55.2199 50.1714 57.2361Z" fill="#CFBDB1"/>
<path d="M34.6394 52.4412C31.6183 52.1115 28.6483 52.9764 26.2772 54.8784C23.9068 56.7812 22.4186 59.4926 22.0882 62.5151C21.4058 68.7519 25.9237 74.3817 32.1606 75.0656C32.5793 75.1108 32.9945 75.1338 33.4068 75.1338C39.1308 75.1338 44.0747 70.8097 44.7117 64.991C45.3948 58.7557 40.8761 53.1251 34.6393 52.4412L34.6394 52.4412ZM24.1346 62.74C24.177 62.3521 24.2509 61.9728 24.3386 61.5993C24.7782 61.7538 25.0827 61.9836 25.4433 62.2731C26.0632 62.7723 26.8346 63.3958 28.3767 63.5645C29.9232 63.7283 30.8089 63.293 31.5227 62.9396C32.1383 62.6337 32.5843 62.4103 33.5296 62.5173C34.4748 62.6214 34.8634 62.9325 35.3985 63.3649C36.0191 63.8641 36.792 64.4861 38.3364 64.6563C38.5712 64.6808 38.7903 64.6937 38.9965 64.6937C40.1464 64.6937 40.8776 64.3309 41.4831 64.0314C41.8982 63.8246 42.2459 63.6651 42.7106 63.6091C42.7171 63.9919 42.7063 64.3783 42.6639 64.7698C42.6136 65.2259 42.521 65.6655 42.4097 66.0957C41.3459 66.1266 40.6477 66.4621 40.0689 66.7487C39.4519 67.0547 39.0022 67.2759 38.0598 67.171C37.1146 67.0669 36.726 66.7558 36.1909 66.3249C35.5703 65.8257 34.7988 65.2022 33.2537 65.0334C31.7073 64.8653 30.8216 65.3042 30.1077 65.6583C29.4922 65.9643 29.0461 66.1862 28.1009 66.0807C27.1578 65.9765 26.7706 65.6655 26.2362 65.2345C25.7348 64.8301 25.125 64.3489 24.0956 64.0896C24.0813 63.645 24.0856 63.196 24.1344 62.7399L24.1346 62.74ZM40.5696 62.1847C39.9526 62.4914 39.5051 62.7127 38.5612 62.6078C37.6153 62.5036 37.2274 62.1919 36.6915 61.7602C36.0709 61.261 35.2981 60.6375 33.7537 60.4688C32.2051 60.305 31.3215 60.7403 30.6077 61.0937C29.9907 61.3997 29.5454 61.6237 28.6008 61.516C27.6563 61.4119 27.2706 61.1008 26.7348 60.6699C26.3082 60.3258 25.8047 59.9286 25.0339 59.6557C25.3421 59.0257 25.7163 58.4303 26.1616 57.8837C26.7485 58.3448 27.5084 58.8498 28.8761 58.9999C30.424 59.1644 31.3082 58.7284 32.0221 58.375C32.6376 58.069 33.083 57.847 34.0289 57.9526C34.9749 58.0568 35.3628 58.3678 35.8986 58.8002C36.5192 59.2994 37.2906 59.9214 38.8365 60.0917C39.0713 60.1161 39.2897 60.129 39.4958 60.129C40.4935 60.129 41.168 59.8575 41.7276 59.5896C42.0415 60.2145 42.2814 60.8767 42.4495 61.567C41.6385 61.6661 41.0596 61.9427 40.5697 62.1848L40.5696 62.1847ZM34.4146 54.4897C36.9315 54.7648 39.1028 56.0269 40.5946 57.8448C40.1765 58.0229 39.7542 58.1249 39.0603 58.0459C38.1151 57.9418 37.7265 57.63 37.1914 57.1984C36.5708 56.6992 35.7979 56.0757 34.2535 55.9069C32.7049 55.7403 31.8213 56.1784 31.1075 56.5318C30.4919 56.8378 30.0466 57.0597 29.1007 56.9541C28.4104 56.878 28.0196 56.6898 27.6497 56.4248C29.579 54.9121 31.9724 54.2175 34.4145 54.4898L34.4146 54.4897ZM32.3847 73.0193C31.4179 72.913 30.5014 72.6609 29.6552 72.2895C29.847 72.2198 30.0345 72.1466 30.2111 72.074C30.9553 71.7731 31.545 71.5375 32.5289 71.6445C33.508 71.7515 34.0021 72.1035 34.63 72.5495C34.7944 72.6666 34.9668 72.7873 35.1478 72.9058C34.2579 73.0775 33.3299 73.1213 32.3847 73.0193L32.3847 73.0193ZM38.0454 71.8162C38.0031 71.8061 37.9679 71.7824 37.9241 71.7774C36.945 71.6703 36.4509 71.3184 35.823 70.8723C35.094 70.353 34.2658 69.764 32.7545 69.5988C31.2504 69.4329 30.2894 69.8222 29.441 70.1648C28.6975 70.4658 28.1107 70.7014 27.1232 70.5943C27.1131 70.5936 27.1023 70.5987 27.0923 70.5972C25.8927 69.4882 24.9878 68.0797 24.4986 66.5002C24.6459 66.6029 24.791 66.7143 24.9454 66.8392C25.5653 67.3384 26.3353 67.9619 27.8788 68.1307C29.4253 68.2973 30.311 67.8592 31.0248 67.5065C31.6418 67.1998 32.0872 66.9771 33.0317 67.0834C33.977 67.1876 34.3655 67.4986 34.9007 67.9296C35.5212 68.4288 36.2927 69.0523 37.8378 69.221C38.0734 69.2469 38.2939 69.2584 38.5007 69.2584C39.65 69.2584 40.3813 68.8957 40.9868 68.5961C41.1671 68.5078 41.3337 68.4295 41.5004 68.3605C40.6722 69.805 39.4705 70.9909 38.0455 71.8162L38.0454 71.8162Z" fill="black"/>
<path d="M78.5426 16.7374C77.4709 11.5025 72.3423 8.11507 67.1047 9.18745L51.1955 12.4456C48.6686 12.9628 46.4907 14.4411 45.0607 16.6066C43.6313 18.7729 43.1292 21.3566 43.6457 23.8827L46.9038 39.792C47.421 42.3189 48.8993 44.4982 51.0648 45.9283C52.6745 46.9899 54.5155 47.5408 56.3924 47.5408C57.0403 47.5408 57.6932 47.4747 58.3419 47.3418L74.2524 44.0851C79.4866 43.012 82.8733 37.8821 81.8024 32.648L78.5426 16.7374ZM73.8378 42.0686L57.9273 45.3253C55.9392 45.7333 53.9049 45.3354 52.1976 44.2091C50.4917 43.0828 49.3267 41.3669 48.9187 39.3808L45.6605 23.4715C45.254 21.4834 45.6504 19.4484 46.7767 17.7418C47.903 16.0345 49.6189 14.8709 51.6065 14.4629L67.5157 11.2047C68.0308 11.0999 68.5422 11.0496 69.0478 11.0496C72.5962 11.0496 75.7846 13.5434 76.5229 17.1507L79.7811 33.0613C80.6272 37.182 77.9602 41.2231 73.8381 42.0684L73.8378 42.0686Z" fill="black"/>
<path d="M69.5122 18.7014C66.9752 17.0271 63.9384 16.4402 60.9603 17.0508C57.9824 17.6606 55.4202 19.3923 53.746 21.9293C52.0717 24.4663 51.4856 27.503 52.0954 30.4812C53.1965 35.8626 57.9494 39.5795 63.2401 39.579C63.9936 39.579 64.7593 39.5035 65.5265 39.3463C71.6729 38.0878 75.6507 32.063 74.3915 25.9159C73.7824 22.9379 72.05 20.3758 69.5123 18.7015L69.5122 18.7014ZM66.3863 22.4386C66.6973 23.9606 67.389 24.671 67.9442 25.2427C68.424 25.7362 68.7702 26.0924 68.9613 27.0233C69.1516 27.9549 68.9735 28.4197 68.7257 29.0626C68.4405 29.806 68.0843 30.7304 68.396 32.2545C68.6718 33.6006 69.2436 34.3118 69.7564 34.8548C69.2594 35.3439 68.7027 35.7742 68.0986 36.1441C67.756 35.4028 67.3143 34.9374 66.9329 34.5452C66.4531 34.0517 66.1061 33.6955 65.9158 32.7639C65.7254 31.8308 65.9036 31.3675 66.1507 30.7246C66.4373 29.9812 66.7935 29.0554 66.4804 27.5334C66.1693 26.0107 65.4776 25.3002 64.9224 24.7285C64.4433 24.235 64.0964 23.8788 63.906 22.9479C63.7157 22.0177 63.8946 21.5537 64.1416 20.9123C64.3392 20.3995 64.5647 19.7954 64.5863 18.9737C65.2801 19.0735 65.9546 19.2754 66.6119 19.5318C66.3533 20.2278 66.1127 21.1041 66.3863 22.4388L66.3863 22.4386ZM55.4662 23.0642C56.1256 22.065 56.9552 21.2239 57.9076 20.5588C57.8551 20.7319 57.7919 20.905 57.7201 21.0925C57.4335 21.8359 57.0772 22.7596 57.3897 24.2802C57.7007 25.8022 58.3924 26.5127 58.9476 27.0844C59.4275 27.5778 59.7737 27.9341 59.9647 28.865C60.1551 29.798 59.9769 30.2613 59.7298 30.9042C59.4432 31.6477 59.087 32.5735 59.4001 34.0955C59.7119 35.6182 60.4029 36.3287 60.9581 36.9018C61.0982 37.0462 61.2239 37.182 61.3409 37.3206C59.7112 36.978 58.2135 36.1979 56.9926 35.0947C56.9897 35.0495 57.0019 35.0071 56.9926 34.9618C56.795 33.9957 56.9782 33.4183 57.2109 32.6863C57.4817 31.833 57.7898 30.864 57.4839 29.375C57.1815 27.8939 56.5171 27.0958 55.9309 26.3927C55.4174 25.7771 55.0115 25.2908 54.8126 24.3176C54.8097 24.3054 54.8011 24.296 54.7982 24.2838C54.9922 23.8658 55.2077 23.4557 55.4662 23.0642L55.4662 23.0642ZM53.9715 27.246C54.0971 27.4076 54.2236 27.5613 54.3464 27.7085C54.86 28.3255 55.2658 28.8111 55.4648 29.7858C55.6616 30.7519 55.4784 31.3294 55.2464 32.0613C55.1846 32.2553 55.1229 32.4578 55.0654 32.6676C54.6308 31.8724 54.3047 31.0012 54.113 30.0688C53.9204 29.1264 53.8774 28.1769 53.9715 27.2459V27.246ZM65.1135 37.3299C64.6645 37.4219 64.2178 37.4678 63.7724 37.4937C63.4183 36.491 62.8825 35.9271 62.4336 35.4638C61.9537 34.9704 61.6068 34.6141 61.4165 33.6825C61.2261 32.7495 61.4043 32.2862 61.6513 31.6433C61.9379 30.8999 62.2942 29.974 61.981 28.452C61.67 26.9293 60.9783 26.2188 60.4231 25.6471C59.944 25.1537 59.5971 24.7974 59.4067 23.8665C59.2164 22.9364 59.3952 22.4724 59.6423 21.831C59.8743 21.2284 60.1466 20.5014 60.0776 19.442C60.4985 19.2905 60.928 19.159 61.3748 19.0671C61.7569 18.9888 62.1398 18.9428 62.5226 18.9126C62.509 19.3788 62.3847 19.7394 62.2188 20.1696C61.9322 20.9131 61.5759 21.8368 61.8884 23.3574C62.1994 24.8794 62.8904 25.5898 63.4456 26.1615C63.9254 26.655 64.2717 27.0113 64.4627 27.9421C64.6531 28.8752 64.4749 29.3385 64.2278 29.9814C63.9412 30.7248 63.585 31.6506 63.8981 33.1726C64.2099 34.6953 64.9009 35.4058 65.4561 35.979C65.7793 36.3115 66.0357 36.5938 66.2318 37.0198C65.8684 37.1426 65.4985 37.251 65.1135 37.3301L65.1135 37.3299ZM71.0745 33.2379C70.7771 32.8938 70.5523 32.521 70.4136 31.8408C70.2233 30.9092 70.4014 30.4445 70.6492 29.8016C70.9344 29.0582 71.2907 28.1337 70.9789 26.6103C70.6679 25.0876 69.9762 24.3771 69.421 23.8054C68.9419 23.312 68.5949 22.9557 68.4046 22.0248C68.2653 21.3432 68.3263 20.9136 68.4642 20.4805C70.4941 21.8532 71.884 23.924 72.3774 26.3274C72.8823 28.8083 72.3465 31.2612 71.0744 33.2379L71.0745 33.2379Z" fill="black"/>
<path d="M19.8278 39.9081L34.7752 33.5601C37.1484 32.5523 38.9923 30.6719 39.9641 28.2641C40.9352 25.8579 40.9158 23.2247 39.9074 20.8521L33.5593 5.90327C31.4713 0.985228 25.7716 -1.31823 20.8508 0.771191L5.90342 7.11927C3.5288 8.12702 1.68633 10.0075 0.714524 12.4152C-0.257316 14.8214 -0.237202 17.4546 0.771266 19.8272L7.11934 34.7761C8.6859 38.4623 12.2794 40.6782 16.0533 40.6782C17.3146 40.6782 18.5953 40.4303 19.8278 39.9081ZM9.01477 33.9708L2.6667 19.022C1.873 17.1552 1.85864 15.0814 2.62432 13.1853C3.39073 11.2884 4.84025 9.80795 6.70847 9.01488L21.6559 2.66681C22.6255 2.25523 23.6348 2.05914 24.6288 2.05914C27.6003 2.05914 30.4311 3.80456 31.6637 6.70706L38.0118 21.6559C38.8047 23.5227 38.8198 25.5965 38.0541 27.4926C37.2877 29.3895 35.8382 30.8699 33.97 31.663L19.0226 38.0111C15.151 39.6567 10.6603 37.8439 9.01477 33.9708Z" fill="black"/>
<path d="M43.6407 46.7723L27.4974 45.0046C24.9325 44.7223 22.4061 45.4635 20.3829 47.0876C18.3588 48.7116 17.0889 51.018 16.8087 53.5822L15.0402 69.7248C14.7594 72.289 15.4992 74.8146 17.1232 76.8393C18.7473 78.8634 21.0537 80.1333 23.6179 80.4141L39.7612 82.1818C40.1175 82.2205 40.473 82.2407 40.8257 82.2407C43.0172 82.2407 45.1333 81.4972 46.875 80.0988C48.8991 78.4748 50.169 76.1684 50.4492 73.6042L52.2169 57.4609C52.8002 52.1484 48.9525 47.354 43.6407 46.7723ZM50.1714 57.2361L48.4037 73.3802C48.1832 75.3964 47.1826 77.213 45.5887 78.493C43.9948 79.7729 42.0045 80.3612 39.9883 80.1357L23.8449 78.368C21.8287 78.1467 20.0122 77.1469 18.7322 75.5517C17.4522 73.9564 16.8682 71.9682 17.0895 69.952L18.8571 53.8079C19.0777 51.7917 20.0782 49.9751 21.6722 48.6951C23.0455 47.5933 24.7119 47.0065 26.4365 47.0065C26.7145 47.0065 26.9939 47.0223 27.2726 47.0532L43.4159 48.8208C45.4321 49.0421 47.2487 50.0419 48.5287 51.6371C49.8094 53.231 50.3934 55.2199 50.1714 57.2361Z" fill="black"/>
</svg>
