<svg width="29" height="31" viewBox="0 0 29 31" fill="none" xmlns="http://www.w3.org/2000/svg">
<path fill-rule="evenodd" clip-rule="evenodd" d="M0 11.4365C0 17.624 4.84558 22.64 10.823 22.64C13.4058 22.64 16.1394 21.2958 18 19.7332L27.5 29.7332C28 30.2332 28.5 29.935 28.6981 29.7332C29.1006 29.323 29.1006 28.8505 28.6981 28.4404L19.0979 18.6581C20.688 16.7081 21.646 14.1882 21.646 11.4367C21.646 5.24915 16.8004 0.233154 10.823 0.233154C4.84542 0.233154 0 5.24891 0 11.4365ZM1.5 11.4365C1.5 16.4953 6.01474 21.2332 10.823 21.2332C15.6315 21.2332 20 16.4955 20 11.4367C20 6.37791 15.6313 1.73315 10.823 1.73315C6.0145 1.73315 1.5 6.37767 1.5 11.4365Z" fill="black"/>
</svg>
